<?xml version="1.0" encoding="utf-8"?>
<!-- Generator: Adobe Illustrator 22.0.1, SVG Export Plug-In . SVG Version: 6.00 Build 0)  -->
<svg version="1.1" id="圖層_1" xmlns="http://www.w3.org/2000/svg" xmlns:xlink="http://www.w3.org/1999/xlink" x="0px" y="0px"
	 viewBox="0 0 1000 1000" style="enable-background:new 0 0 1000 1000;" xml:space="preserve">
<style type="text/css">
	.st0{fill:#77B55A;}
</style>
<g>
	<path class="st0" d="M208.3,484c-2.3-20-14.9-29.8-38.2-29.8c-20.5,0-33.6,8.3-33.6,20.9c0,10.6,8,16.9,27.6,21.1l24.9,5.1
		c18.2,3.9,27.3,7.6,34.7,13.9c8,6.7,12.4,16.5,12.4,27.8c0,27.4-23.4,44.3-60.7,44.3c-39.8,0-63.7-19.1-66.9-53.9h22.8
		c2.3,23,18.4,35.8,44.8,35.8c22.1,0,37.7-10.2,37.7-24.8c0-10.9-8.3-18-24.4-21.7L155,515c-28-6.3-40.7-18-40.7-37.6
		c0-25.4,22.3-41.5,57.5-41.5s54,15.4,58.8,48h-22.3V484z"/>
	<path class="st0" d="M286.8,584.2h-21.8V439.3h21.8V584.2z"/>
	<path class="st0" d="M377.9,584.2h-21.8V457.3h-47.8v-18h117.4v18H378L377.9,584.2L377.9,584.2z"/>
	<path class="st0" d="M548.3,484.6c-4.6-19.1-20-30.6-41.1-30.6c-29.4,0-48.7,22.6-48.7,56.7c0,35,19.3,58.6,48,58.6
		c23.9,0,40.5-15.2,43.9-40.4h22.1c-1.8,14.3-5.3,23.5-13.1,33.7c-12.6,16.5-30.3,24.8-53.3,24.8c-22.8,0-40.9-8.3-53.8-24.8
		c-11-14.1-16.8-31.7-16.8-51.5c0-44.1,29.6-75.2,71.7-75.2c32.6,0,55.8,17.4,62.5,46.7L548.3,484.6z"/>
	<path class="st0" d="M869.5,584.2l-62.7-91.4c-7.6-11.3-12.2-18.5-15.9-25c0.5,6.5,0.7,20.2,0.7,27.4v89.1h-20.7v-145h22.3
		l60.2,88.2c5.7,8.3,13.6,21.3,18.2,30c-0.5-8-0.7-16.9-0.7-27.2v-90.1h20.7v144H869.5L869.5,584.2z"/>
	<g>
		<path class="st0" d="M696.5,374.5c12.9-9.9,28.3-6.2,28.3-6.2s-2.6,18.3-15.5,28.2s-31.4,7.5-31.4,7.5s4-6,8-13.9
			C688.3,385.5,691.6,378.1,696.5,374.5z"/>
		<path class="st0" d="M665.3,389.4c-6-4.6-13.2-2.9-13.2-2.9s1.2,8.6,7.2,13.2s14.6,3.5,14.6,3.5s-1.9-2.8-3.7-6.5
			C669.1,394.5,667.5,391.1,665.3,389.4z"/>
		<path class="st0" d="M666.8,433.1c1.8,0,3.5,0.1,5.3,0.2c-1.6-9.4-1.3-19.1,3.6-27.5c-8.5,6.8-12.6,17.2-14.7,27.6
			C663,433.3,664.8,433.1,666.8,433.1z"/>
		<path class="st0" d="M666.8,436.3c-42.4,0-76.8,34.3-76.8,76.5c0,42.3,34.4,76.5,76.8,76.5s76.8-34.3,76.8-76.5
			C743.5,470.5,709.3,436.3,666.8,436.3z M698.1,544l-31.4-21.5L635.3,544l21.6-31.3l-21.6-31.3l31.4,21.5l31.4-21.5l-21.6,31.3
			L698.1,544z"/>
	</g>
</g>
</svg>
