<svg width="269" height="75" viewBox="0 0 269 75" fill="none" xmlns="http://www.w3.org/2000/svg">
<path d="M16.126 35.5173C15.8392 33.0312 14.2677 31.813 11.3618 31.813C8.80508 31.813 7.17128 32.8447 7.17128 34.411C7.17128 35.7286 8.16902 36.5118 10.6135 37.0339L13.719 37.6678C15.9888 38.1526 17.1238 38.6126 18.0467 39.3957C19.0444 40.2286 19.5932 41.4468 19.5932 42.8514C19.5932 46.2574 16.6748 48.3582 12.0228 48.3582C7.05903 48.3582 4.07827 45.984 3.67918 41.6581H6.52274C6.8096 44.5171 8.81755 46.1083 12.1101 46.1083C14.8664 46.1083 16.812 44.8403 16.812 43.0255C16.812 41.6705 15.7768 40.7879 13.7689 40.328L9.47856 39.3708C5.98646 38.5877 4.40254 37.1333 4.40254 34.6969C4.40254 31.5395 7.18375 29.5381 11.5738 29.5381C15.9639 29.5381 18.3086 31.4525 18.9072 35.5049H16.126V35.5173Z" fill="#77B55A"/>
<path d="M25.9039 47.9605H23.1851V29.9484H25.9039V47.9605Z" fill="#77B55A"/>
<path d="M37.2782 47.9605H34.5593V32.1859H28.5978V29.9484H43.2397V32.1859H37.2782V47.9605V47.9605Z" fill="#77B55A"/>
<path d="M58.5176 35.5919C57.9439 33.2176 56.0233 31.7881 53.3917 31.7881C49.725 31.7881 47.318 34.5974 47.318 38.8363C47.318 43.187 49.725 46.1207 53.3044 46.1207C56.2852 46.1207 58.3555 44.2312 58.7795 41.0987H61.5358C61.3113 42.8763 60.8748 44.0199 59.902 45.2878C58.3306 47.3389 56.1231 48.3706 53.2545 48.3706C50.411 48.3706 48.1536 47.3389 46.5447 45.2878C45.1728 43.5351 44.4495 41.3473 44.4495 38.886C44.4495 33.4041 48.1411 29.5381 53.3917 29.5381C57.4575 29.5381 60.351 31.7011 61.1866 35.3433L58.5176 35.5919Z" fill="#77B55A"/>
<path d="M98.5895 47.9605L90.7697 36.5988C89.8218 35.1941 89.2481 34.2991 88.7867 33.4911C88.849 34.2991 88.874 36.0021 88.874 36.8971V47.9729H86.2923V29.9484H89.0735L96.5815 40.9122C97.2924 41.944 98.2777 43.56 98.8514 44.6415C98.789 43.647 98.7641 42.5407 98.7641 41.2603V30.0602H101.346V47.9605H98.5895V47.9605Z" fill="#77B55A"/>
<path d="M77.0008 21.9057C78.6097 20.6751 80.5303 21.135 80.5303 21.135C80.5303 21.135 80.2061 23.4098 78.5972 24.6405C76.9884 25.8711 74.6811 25.5728 74.6811 25.5728C74.6811 25.5728 75.1799 24.8269 75.6788 23.8449C75.9781 23.2731 76.4022 22.3532 77.0008 21.9057Z" fill="#77B55A"/>
<path d="M73.1221 23.7579C72.3738 23.186 71.4758 23.3974 71.4758 23.3974C71.4758 23.3974 71.6255 24.4664 72.3738 25.0382C73.1221 25.61 74.1947 25.4733 74.1947 25.4733C74.1947 25.4733 73.9577 25.1252 73.7332 24.6653C73.596 24.3918 73.3965 23.9692 73.1221 23.7579Z" fill="#77B55A"/>
<path d="M73.3092 29.1901C73.5337 29.1901 73.7457 29.2025 73.9702 29.215C73.7706 28.0465 73.8081 26.8407 74.4192 25.7965C73.3591 26.6418 72.8477 27.9346 72.5858 29.2274C72.8228 29.2025 73.0597 29.1901 73.3092 29.1901Z" fill="#77B55A"/>
<path d="M73.3092 29.5754C68.0211 29.5754 63.7308 33.8392 63.7308 39.0849C63.7308 44.3431 68.0211 48.5944 73.3092 48.5944C78.5972 48.5944 82.8875 44.3307 82.8875 39.0849C82.875 33.8392 78.5972 29.5754 73.3092 29.5754ZM77.2128 42.9757L73.2967 40.3031L69.3806 42.9757L72.0745 39.0849L69.3806 35.1941L73.2967 37.8667L77.2128 35.1941L74.5189 39.0849L77.2128 42.9757Z" fill="#77B55A"/>
<path d="M113 45.0312C112.635 45.0312 112.453 44.8125 112.453 44.375V31.4219C112.453 30.9844 112.635 30.7656 113 30.7656C113.365 30.7656 113.547 30.9844 113.547 31.4219V44.375C113.547 44.8125 113.365 45.0312 113 45.0312ZM125.75 43.5938C125.552 43.5938 125.38 43.526 125.234 43.3906C125.099 43.2448 125.031 43.0729 125.031 42.875V33.9375H121.859C121.672 33.9375 121.51 33.875 121.375 33.75C121.25 33.6146 121.188 33.4531 121.188 33.2656C121.188 33.0781 121.25 32.9167 121.375 32.7812C121.51 32.6458 121.672 32.5781 121.859 32.5781H129.641C129.828 32.5781 129.99 32.6458 130.125 32.7812C130.26 32.9167 130.328 33.0781 130.328 33.2656C130.328 33.4531 130.26 33.6146 130.125 33.75C129.99 33.875 129.828 33.9375 129.641 33.9375H126.484V42.875C126.484 43.0729 126.411 43.2448 126.266 43.3906C126.12 43.526 125.948 43.5938 125.75 43.5938ZM134.312 43.6719C133.031 43.6719 132.031 43.3073 131.312 42.5781C130.604 41.849 130.25 40.8281 130.25 39.5156C130.25 38.8073 130.385 38.125 130.656 37.4688C130.938 36.8125 131.365 36.2969 131.938 35.9219C132.51 35.5469 133.198 35.3594 134 35.3594C134.771 35.3594 135.443 35.5365 136.016 35.8906C136.557 36.2448 136.979 36.724 137.281 37.3281C137.583 37.9219 137.734 38.5833 137.734 39.3125C137.734 39.5104 137.667 39.6823 137.531 39.8281C137.396 39.9635 137.219 40.0312 137 40.0312H131.719C131.812 40.7708 132.089 41.3385 132.547 41.7344C133.016 42.1198 133.646 42.3125 134.438 42.3125C134.854 42.3125 135.224 42.276 135.547 42.2031C135.88 42.1198 136.214 41.9948 136.547 41.8281C136.62 41.7865 136.714 41.7656 136.828 41.7656C136.995 41.7656 137.141 41.8281 137.266 41.9531C137.401 42.0677 137.469 42.2135 137.469 42.3906C137.469 42.6302 137.328 42.8281 137.047 42.9844C136.609 43.224 136.193 43.3958 135.797 43.5C135.401 43.6146 134.906 43.6719 134.312 43.6719ZM136.094 38.8438C136.229 38.8438 136.292 38.776 136.281 38.6406C136.24 38.224 136.115 37.875 135.906 37.5938C135.677 37.2604 135.391 37.0104 135.047 36.8438C134.714 36.6771 134.365 36.5938 134 36.5938C133.667 36.5938 133.318 36.6719 132.953 36.8281C132.589 37.0052 132.297 37.2708 132.078 37.625C131.87 37.9688 131.75 38.375 131.719 38.8438H136.094ZM140.297 43.5938C140.099 43.5938 139.927 43.526 139.781 43.3906C139.646 43.2448 139.578 43.0729 139.578 42.875V36.1719C139.578 35.974 139.646 35.8021 139.781 35.6562C139.927 35.5104 140.099 35.4375 140.297 35.4375C140.495 35.4375 140.667 35.5104 140.812 35.6562C140.958 35.8021 141.031 35.974 141.031 36.1719V36.7969C141.75 35.8385 142.562 35.3594 143.469 35.3594H143.547C143.745 35.3594 143.911 35.4323 144.047 35.5781C144.182 35.7135 144.25 35.8802 144.25 36.0781C144.25 36.276 144.177 36.4427 144.031 36.5781C143.896 36.7031 143.724 36.7656 143.516 36.7656H143.438C142.948 36.7656 142.495 36.8854 142.078 37.125C141.672 37.3542 141.323 37.6875 141.031 38.125V42.875C141.031 43.0729 140.958 43.2448 140.812 43.3906C140.667 43.526 140.495 43.5938 140.297 43.5938ZM156.406 35.7969C156.781 36.0781 157.062 36.4479 157.25 36.9062C157.448 37.3646 157.547 37.8542 157.547 38.375V42.875C157.547 43.0729 157.474 43.2448 157.328 43.3906C157.182 43.526 157.01 43.5938 156.812 43.5938C156.615 43.5938 156.443 43.526 156.297 43.3906C156.161 43.2448 156.094 43.0729 156.094 42.875V38.6562C156.094 37.9583 155.969 37.4583 155.719 37.1562C155.479 36.8542 155.078 36.7031 154.516 36.7031C154.016 36.7031 153.594 36.8333 153.25 37.0938C152.906 37.3438 152.583 37.7083 152.281 38.1875V42.875C152.281 43.0729 152.208 43.2448 152.062 43.3906C151.917 43.526 151.745 43.5938 151.547 43.5938C151.349 43.5938 151.177 43.526 151.031 43.3906C150.896 43.2448 150.828 43.0729 150.828 42.875V38.6562C150.828 37.9583 150.703 37.4583 150.453 37.1562C150.214 36.8542 149.812 36.7031 149.25 36.7031C148.75 36.7031 148.328 36.8333 147.984 37.0938C147.641 37.3438 147.318 37.7083 147.016 38.1875V42.875C147.016 43.0729 146.943 43.2448 146.797 43.3906C146.651 43.526 146.479 43.5938 146.281 43.5938C146.083 43.5938 145.911 43.526 145.766 43.3906C145.63 43.2448 145.562 43.0729 145.562 42.875V36.1719C145.562 35.974 145.63 35.8021 145.766 35.6562C145.911 35.5104 146.083 35.4375 146.281 35.4375C146.479 35.4375 146.651 35.5104 146.797 35.6562C146.943 35.8021 147.016 35.974 147.016 36.1719V36.75C147.339 36.3125 147.708 35.974 148.125 35.7344C148.542 35.4844 149.052 35.3594 149.656 35.3594C150.219 35.3594 150.708 35.5104 151.125 35.8125C151.552 36.1042 151.859 36.4844 152.047 36.9531C152.693 35.8906 153.651 35.3594 154.922 35.3594C155.526 35.3594 156.021 35.5052 156.406 35.7969ZM162.5 43.6719C161.469 43.6719 160.516 43.4375 159.641 42.9688C159.464 42.8438 159.375 42.6667 159.375 42.4375C159.375 42.2708 159.432 42.125 159.547 42C159.672 41.8646 159.823 41.7969 160 41.7969C160.104 41.7969 160.198 41.8177 160.281 41.8594C160.635 42.0156 160.979 42.1354 161.312 42.2188C161.646 42.2917 162.01 42.3281 162.406 42.3281C163.552 42.3281 164.125 41.9635 164.125 41.2344C164.125 41.0052 164 40.8281 163.75 40.7031C163.49 40.5781 163.052 40.4375 162.438 40.2812C161.833 40.1458 161.328 39.9948 160.922 39.8281C160.474 39.6615 160.115 39.4115 159.844 39.0781C159.573 38.7448 159.438 38.3333 159.438 37.8438C159.438 37.1042 159.708 36.5052 160.25 36.0469C160.792 35.5885 161.542 35.3594 162.5 35.3594C163.333 35.3594 164.089 35.4896 164.766 35.75C164.911 35.7917 165.026 35.8698 165.109 35.9844C165.193 36.099 165.234 36.224 165.234 36.3594C165.234 36.526 165.172 36.6771 165.047 36.8125C164.922 36.9375 164.771 37 164.594 37L164.391 36.9688C163.766 36.7812 163.172 36.6875 162.609 36.6875C162.068 36.6875 161.635 36.7865 161.312 36.9844C160.99 37.1823 160.828 37.4427 160.828 37.7656C160.828 38.0677 160.969 38.2917 161.25 38.4375C161.552 38.5729 162.005 38.7135 162.609 38.8594C163.172 39.0052 163.672 39.1562 164.109 39.3125C164.536 39.4792 164.88 39.7344 165.141 40.0781C165.401 40.4115 165.531 40.8333 165.531 41.3438C165.531 42.0208 165.26 42.5781 164.719 43.0156C164.177 43.4531 163.438 43.6719 162.5 43.6719ZM175.625 43.6719C174.823 43.6719 174.12 43.5 173.516 43.1562C172.911 42.8021 172.443 42.3073 172.109 41.6719C171.776 41.0365 171.609 40.3177 171.609 39.5156C171.609 38.7031 171.776 37.9792 172.109 37.3438C172.443 36.7083 172.911 36.2188 173.516 35.875C174.13 35.5312 174.833 35.3594 175.625 35.3594C176.417 35.3594 177.115 35.5312 177.719 35.875C178.333 36.2292 178.807 36.724 179.141 37.3594C179.474 37.9844 179.641 38.7031 179.641 39.5156C179.641 40.3281 179.474 41.0469 179.141 41.6719C178.797 42.3177 178.318 42.8125 177.703 43.1562C177.099 43.5 176.406 43.6719 175.625 43.6719ZM175.625 42.3438C176.052 42.3438 176.464 42.2448 176.859 42.0469C177.266 41.8385 177.589 41.5208 177.828 41.0938C178.068 40.6562 178.188 40.125 178.188 39.5C178.188 38.8438 178.062 38.3125 177.812 37.9062C177.583 37.5104 177.276 37.2083 176.891 37C176.516 36.7917 176.094 36.6875 175.625 36.6875C175.198 36.6875 174.786 36.7812 174.391 36.9688C173.984 37.1771 173.661 37.4948 173.422 37.9219C173.182 38.349 173.062 38.875 173.062 39.5C173.062 40.1667 173.188 40.7031 173.438 41.1094C173.667 41.5156 173.969 41.8229 174.344 42.0312C174.729 42.2396 175.156 42.3438 175.625 42.3438ZM182.828 43.5938C182.63 43.5938 182.458 43.526 182.312 43.3906C182.177 43.2448 182.109 43.0729 182.109 42.875V36.7656H181.203C181.036 36.7656 180.891 36.7031 180.766 36.5781C180.641 36.4531 180.578 36.3073 180.578 36.1406C180.578 35.9635 180.641 35.8177 180.766 35.7031C180.891 35.5781 181.036 35.5156 181.203 35.5156H182.109V34.625C182.109 33.9896 182.224 33.474 182.453 33.0781C182.661 32.6927 182.943 32.4062 183.297 32.2188C183.661 32.0208 184.052 31.9219 184.469 31.9219C184.938 31.9219 185.391 32.026 185.828 32.2344C186.078 32.3802 186.203 32.5677 186.203 32.7969C186.203 32.9531 186.141 33.0938 186.016 33.2188C185.901 33.3438 185.766 33.4062 185.609 33.4062C185.495 33.4062 185.375 33.3906 185.25 33.3594L184.828 33.3125C184.37 33.3125 184.042 33.4167 183.844 33.625C183.656 33.8333 183.562 34.1823 183.562 34.6719V35.5156H185.5C185.677 35.5156 185.823 35.5781 185.938 35.7031C186.062 35.8177 186.125 35.9635 186.125 36.1406C186.125 36.3073 186.062 36.4531 185.938 36.5781C185.823 36.7031 185.677 36.7656 185.5 36.7656H183.562V42.875C183.562 43.0729 183.49 43.2448 183.344 43.3906C183.198 43.526 183.026 43.5938 182.828 43.5938ZM193.172 43.5156C192.974 43.5156 192.802 43.4479 192.656 43.3125C192.521 43.1667 192.453 42.9948 192.453 42.7969V33.3125C192.453 33.1146 192.521 32.9427 192.656 32.7969C192.802 32.651 192.974 32.5781 193.172 32.5781H196.859C197.953 32.5781 198.812 32.8333 199.438 33.3438C200.062 33.8438 200.375 34.5365 200.375 35.4219C200.375 35.9948 200.24 36.4896 199.969 36.9062C199.698 37.3125 199.333 37.6198 198.875 37.8281C199.521 38.0365 200.031 38.3646 200.406 38.8125C200.792 39.25 200.984 39.7917 200.984 40.4375C200.984 41.4479 200.641 42.2135 199.953 42.7344C199.276 43.2552 198.276 43.5156 196.953 43.5156H193.172ZM196.484 37.2969C197.38 37.2969 198.021 37.151 198.406 36.8594C198.792 36.5573 198.984 36.1146 198.984 35.5312C198.984 35.0417 198.781 34.6562 198.375 34.375C197.979 34.0833 197.438 33.9375 196.75 33.9375H194.094C193.969 33.9375 193.906 34 193.906 34.125V37.2969H196.484ZM196.812 42.1562C197.792 42.1562 198.495 42.0104 198.922 41.7188C199.359 41.4167 199.578 40.9688 199.578 40.375C199.578 39.1979 198.661 38.6094 196.828 38.6094H193.906V41.9688C193.906 42.0938 193.969 42.1562 194.094 42.1562H196.812ZM203.609 43.5938C203.411 43.5938 203.24 43.526 203.094 43.3906C202.958 43.2448 202.891 43.0729 202.891 42.875V36.1719C202.891 35.974 202.958 35.8021 203.094 35.6562C203.24 35.5104 203.411 35.4375 203.609 35.4375C203.807 35.4375 203.979 35.5104 204.125 35.6562C204.271 35.8021 204.344 35.974 204.344 36.1719V36.7969C205.062 35.8385 205.875 35.3594 206.781 35.3594H206.859C207.057 35.3594 207.224 35.4323 207.359 35.5781C207.495 35.7135 207.562 35.8802 207.562 36.0781C207.562 36.276 207.49 36.4427 207.344 36.5781C207.208 36.7031 207.036 36.7656 206.828 36.7656H206.75C206.26 36.7656 205.807 36.8854 205.391 37.125C204.984 37.3542 204.635 37.6875 204.344 38.125V42.875C204.344 43.0729 204.271 43.2448 204.125 43.3906C203.979 43.526 203.807 43.5938 203.609 43.5938ZM210.922 43.6719C210.474 43.6719 210.052 43.5781 209.656 43.3906C209.25 43.2031 208.932 42.9271 208.703 42.5625C208.474 42.1979 208.359 41.7812 208.359 41.3125C208.359 40.5 208.672 39.875 209.297 39.4375C209.932 38.9896 210.823 38.7656 211.969 38.7656H213.844V38.6562C213.844 37.9896 213.677 37.5052 213.344 37.2031C213.021 36.8906 212.495 36.7344 211.766 36.7344C211.391 36.7344 211.052 36.7656 210.75 36.8281C210.448 36.8802 210.094 36.974 209.688 37.1094L209.484 37.1406C209.328 37.1406 209.188 37.0833 209.062 36.9688C208.948 36.8438 208.891 36.6979 208.891 36.5312C208.891 36.2396 209.031 36.0365 209.312 35.9219C210.188 35.5469 211.089 35.3594 212.016 35.3594C212.734 35.3594 213.349 35.5052 213.859 35.7969C214.339 36.0781 214.698 36.4531 214.938 36.9219C215.177 37.3802 215.297 37.8906 215.297 38.4531V42.875C215.297 43.0729 215.224 43.2448 215.078 43.3906C214.932 43.526 214.76 43.5938 214.562 43.5938C214.365 43.5938 214.193 43.526 214.047 43.3906C213.911 43.2448 213.844 43.0729 213.844 42.875V42.5C213.094 43.2812 212.12 43.6719 210.922 43.6719ZM211.453 42.3906C211.901 42.3906 212.333 42.2865 212.75 42.0781C213.177 41.8594 213.542 41.5781 213.844 41.2344V39.9375H212.156C210.594 39.9375 209.812 40.3438 209.812 41.1562C209.812 41.9792 210.359 42.3906 211.453 42.3906ZM218.375 43.5938C218.177 43.5938 218.005 43.526 217.859 43.3906C217.724 43.2448 217.656 43.0729 217.656 42.875V36.1719C217.656 35.974 217.724 35.8021 217.859 35.6562C218.005 35.5104 218.177 35.4375 218.375 35.4375C218.573 35.4375 218.745 35.5104 218.891 35.6562C219.036 35.8021 219.109 35.974 219.109 36.1719V36.7656C219.536 36.3073 219.979 35.9583 220.438 35.7188C220.896 35.4792 221.417 35.3594 222 35.3594C222.573 35.3594 223.078 35.4948 223.516 35.7656C223.932 36.0365 224.25 36.4062 224.469 36.875C224.698 37.3438 224.812 37.8646 224.812 38.4375V42.875C224.812 43.0729 224.74 43.2448 224.594 43.3906C224.448 43.526 224.276 43.5938 224.078 43.5938C223.88 43.5938 223.708 43.526 223.562 43.3906C223.427 43.2448 223.359 43.0729 223.359 42.875V38.5938C223.359 37.3333 222.792 36.7031 221.656 36.7031C221.156 36.7031 220.703 36.8281 220.297 37.0781C219.901 37.3281 219.505 37.6979 219.109 38.1875V42.875C219.109 43.0729 219.036 43.2448 218.891 43.3906C218.745 43.526 218.573 43.5938 218.375 43.5938ZM230.484 43.6719C229.849 43.6719 229.24 43.5052 228.656 43.1719C228.052 42.8385 227.573 42.3542 227.219 41.7188C226.865 41.0729 226.688 40.3385 226.688 39.5156C226.688 38.6719 226.87 37.9323 227.234 37.2969C227.589 36.6719 228.052 36.1927 228.625 35.8594C229.198 35.526 229.818 35.3594 230.484 35.3594C231.505 35.3594 232.391 35.75 233.141 36.5312V32.7344C233.141 32.526 233.214 32.3542 233.359 32.2188C233.505 32.0729 233.677 32 233.875 32C234.073 32 234.24 32.0729 234.375 32.2188C234.521 32.3646 234.594 32.5365 234.594 32.7344V42.875C234.594 43.0729 234.521 43.2448 234.375 43.3906C234.24 43.526 234.073 43.5938 233.875 43.5938C233.677 43.5938 233.505 43.526 233.359 43.3906C233.214 43.2448 233.141 43.0729 233.141 42.875V42.5C232.391 43.2812 231.505 43.6719 230.484 43.6719ZM230.688 42.3125C231.146 42.3125 231.583 42.2083 232 42C232.427 41.7917 232.807 41.5104 233.141 41.1562V37.875C232.807 37.5208 232.427 37.2396 232 37.0312C231.583 36.8229 231.146 36.7188 230.688 36.7188C229.896 36.7188 229.271 36.9688 228.812 37.4688C228.365 37.9583 228.141 38.6406 228.141 39.5156C228.141 40.3906 228.365 41.0781 228.812 41.5781C229.271 42.0677 229.896 42.3125 230.688 42.3125ZM246.422 43.6719C245.672 43.6719 244.958 43.5156 244.281 43.2031C243.562 42.8802 242.99 42.3906 242.562 41.7344C242.135 41.0781 241.922 40.3021 241.922 39.4062V33.2344C241.922 33.0365 241.99 32.8646 242.125 32.7188C242.271 32.5729 242.443 32.5 242.641 32.5C242.839 32.5 243.01 32.5729 243.156 32.7188C243.302 32.8646 243.375 33.0365 243.375 33.2344V39.4531C243.375 40.0885 243.521 40.6146 243.812 41.0312C244.083 41.4583 244.448 41.7865 244.906 42.0156C245.375 42.2344 245.88 42.3438 246.422 42.3438C246.953 42.3438 247.453 42.2344 247.922 42.0156C248.411 41.7865 248.792 41.4531 249.062 41.0156C249.333 40.5677 249.469 40.0469 249.469 39.4531V33.2344C249.469 33.0365 249.536 32.8646 249.672 32.7188C249.818 32.5729 249.99 32.5 250.188 32.5C250.385 32.5 250.557 32.5729 250.703 32.7188C250.849 32.8646 250.922 33.0365 250.922 33.2344V39.4062C250.922 40.3229 250.703 41.1094 250.266 41.7656C249.839 42.3906 249.281 42.8646 248.594 43.1875C247.917 43.5104 247.193 43.6719 246.422 43.6719ZM255.906 43.6719C254.875 43.6719 253.922 43.4375 253.047 42.9688C252.87 42.8438 252.781 42.6667 252.781 42.4375C252.781 42.2708 252.839 42.125 252.953 42C253.078 41.8646 253.229 41.7969 253.406 41.7969C253.51 41.7969 253.604 41.8177 253.688 41.8594C254.042 42.0156 254.385 42.1354 254.719 42.2188C255.052 42.2917 255.417 42.3281 255.812 42.3281C256.958 42.3281 257.531 41.9635 257.531 41.2344C257.531 41.0052 257.406 40.8281 257.156 40.7031C256.896 40.5781 256.458 40.4375 255.844 40.2812C255.24 40.1458 254.734 39.9948 254.328 39.8281C253.88 39.6615 253.521 39.4115 253.25 39.0781C252.979 38.7448 252.844 38.3333 252.844 37.8438C252.844 37.1042 253.115 36.5052 253.656 36.0469C254.198 35.5885 254.948 35.3594 255.906 35.3594C256.74 35.3594 257.495 35.4896 258.172 35.75C258.318 35.7917 258.432 35.8698 258.516 35.9844C258.599 36.099 258.641 36.224 258.641 36.3594C258.641 36.526 258.578 36.6771 258.453 36.8125C258.328 36.9375 258.177 37 258 37L257.797 36.9688C257.172 36.7812 256.578 36.6875 256.016 36.6875C255.474 36.6875 255.042 36.7865 254.719 36.9844C254.396 37.1823 254.234 37.4427 254.234 37.7656C254.234 38.0677 254.375 38.2917 254.656 38.4375C254.958 38.5729 255.411 38.7135 256.016 38.8594C256.578 39.0052 257.078 39.1562 257.516 39.3125C257.943 39.4792 258.286 39.7344 258.547 40.0781C258.807 40.4115 258.938 40.8333 258.938 41.3438C258.938 42.0208 258.667 42.5781 258.125 43.0156C257.583 43.4531 256.844 43.6719 255.906 43.6719ZM264.391 43.6719C263.109 43.6719 262.109 43.3073 261.391 42.5781C260.682 41.849 260.328 40.8281 260.328 39.5156C260.328 38.8073 260.464 38.125 260.734 37.4688C261.016 36.8125 261.443 36.2969 262.016 35.9219C262.589 35.5469 263.276 35.3594 264.078 35.3594C264.849 35.3594 265.521 35.5365 266.094 35.8906C266.635 36.2448 267.057 36.724 267.359 37.3281C267.661 37.9219 267.812 38.5833 267.812 39.3125C267.812 39.5104 267.745 39.6823 267.609 39.8281C267.474 39.9635 267.297 40.0312 267.078 40.0312H261.797C261.891 40.7708 262.167 41.3385 262.625 41.7344C263.094 42.1198 263.724 42.3125 264.516 42.3125C264.932 42.3125 265.302 42.276 265.625 42.2031C265.958 42.1198 266.292 41.9948 266.625 41.8281C266.698 41.7865 266.792 41.7656 266.906 41.7656C267.073 41.7656 267.219 41.8281 267.344 41.9531C267.479 42.0677 267.547 42.2135 267.547 42.3906C267.547 42.6302 267.406 42.8281 267.125 42.9844C266.688 43.224 266.271 43.3958 265.875 43.5C265.479 43.6146 264.984 43.6719 264.391 43.6719ZM266.172 38.8438C266.307 38.8438 266.37 38.776 266.359 38.6406C266.318 38.224 266.193 37.875 265.984 37.5938C265.755 37.2604 265.469 37.0104 265.125 36.8438C264.792 36.6771 264.443 36.5938 264.078 36.5938C263.745 36.5938 263.396 36.6719 263.031 36.8281C262.667 37.0052 262.375 37.2708 262.156 37.625C261.948 37.9688 261.828 38.375 261.797 38.8438H266.172Z" fill="black"/>
</svg>
