<svg width="218" height="71" viewBox="0 0 218 71" fill="none" xmlns="http://www.w3.org/2000/svg">
<path d="M16.626 31.5173C16.3392 29.0311 14.7677 27.8129 11.8618 27.8129C9.30508 27.8129 7.67128 28.8447 7.67128 30.411C7.67128 31.7286 8.66902 32.5117 11.1135 33.0338L14.219 33.6678C16.4888 34.1526 17.6238 34.6125 18.5467 35.3957C19.5444 36.2285 20.0932 37.4467 20.0932 38.8514C20.0932 42.2574 17.1748 44.3582 12.5228 44.3582C7.55903 44.3582 4.57827 41.9839 4.17918 37.6581H7.02274C7.3096 40.5171 9.31755 42.1082 12.6101 42.1082C15.3664 42.1082 17.312 40.8403 17.312 39.0254C17.312 37.6705 16.2768 36.7879 14.2689 36.328L9.97856 35.3708C6.48646 34.5877 4.90254 33.1333 4.90254 30.6969C4.90254 27.5395 7.68375 25.5381 12.0738 25.5381C16.4639 25.5381 18.8086 27.4524 19.4072 31.5049H16.626V31.5173Z" fill="#77B55A"/>
<path d="M26.4039 43.9604H23.6851V25.9483H26.4039V43.9604Z" fill="#77B55A"/>
<path d="M37.7782 43.9604H35.0593V28.1859H29.0978V25.9483H43.7397V28.1859H37.7782V43.9604V43.9604Z" fill="#77B55A"/>
<path d="M59.0176 31.5919C58.4439 29.2176 56.5233 27.7881 53.8917 27.7881C50.225 27.7881 47.818 30.5974 47.818 34.8363C47.818 39.187 50.225 42.1206 53.8044 42.1206C56.7852 42.1206 58.8555 40.2312 59.2795 37.0987H62.0358C61.8113 38.8762 61.3748 40.0199 60.402 41.2878C58.8306 43.3389 56.6231 44.3706 53.7545 44.3706C50.911 44.3706 48.6536 43.3389 47.0447 41.2878C45.6728 39.5351 44.9495 37.3473 44.9495 34.886C44.9495 29.4041 48.6411 25.5381 53.8917 25.5381C57.9575 25.5381 60.851 27.7011 61.6866 31.3432L59.0176 31.5919Z" fill="#77B55A"/>
<path d="M99.0895 43.9604L91.2697 32.5988C90.3218 31.1941 89.7481 30.2991 89.2867 29.4911C89.349 30.2991 89.374 32.0021 89.374 32.8971V43.9729H86.7923V25.9483H89.5735L97.0815 36.9122C97.7924 37.944 98.7777 39.56 99.3514 40.6414C99.289 39.647 99.2641 38.5406 99.2641 37.2603V26.0602H101.846V43.9604H99.0895V43.9604Z" fill="#77B55A"/>
<path d="M77.5008 17.9057C79.1097 16.675 81.0303 17.135 81.0303 17.135C81.0303 17.135 80.7061 19.4098 79.0972 20.6404C77.4884 21.8711 75.1811 21.5727 75.1811 21.5727C75.1811 21.5727 75.6799 20.8269 76.1788 19.8449C76.4781 19.2731 76.9022 18.3532 77.5008 17.9057Z" fill="#77B55A"/>
<path d="M73.6221 19.7579C72.8738 19.186 71.9758 19.3974 71.9758 19.3974C71.9758 19.3974 72.1255 20.4664 72.8738 21.0382C73.6221 21.61 74.6947 21.4733 74.6947 21.4733C74.6947 21.4733 74.4577 21.1252 74.2332 20.6653C74.096 20.3918 73.8965 19.9692 73.6221 19.7579Z" fill="#77B55A"/>
<path d="M73.8092 25.19C74.0337 25.19 74.2457 25.2025 74.4702 25.2149C74.2706 24.0464 74.3081 22.8406 74.9192 21.7964C73.8591 22.6417 73.3477 23.9345 73.0858 25.2273C73.3228 25.2025 73.5597 25.19 73.8092 25.19Z" fill="#77B55A"/>
<path d="M73.8092 25.5754C68.5211 25.5754 64.2308 29.8391 64.2308 35.0849C64.2308 40.3431 68.5211 44.5944 73.8092 44.5944C79.0972 44.5944 83.3875 40.3307 83.3875 35.0849C83.375 29.8391 79.0972 25.5754 73.8092 25.5754ZM77.7128 38.9757L73.7967 36.3031L69.8806 38.9757L72.5745 35.0849L69.8806 31.1941L73.7967 33.8667L77.7128 31.1941L75.0189 35.0849L77.7128 38.9757Z" fill="#77B55A"/>
<path d="M113.5 41.0312C113.135 41.0312 112.953 40.8125 112.953 40.375V27.4219C112.953 26.9844 113.135 26.7656 113.5 26.7656C113.865 26.7656 114.047 26.9844 114.047 27.4219V40.375C114.047 40.8125 113.865 41.0312 113.5 41.0312ZM126.438 32.9688C125.875 32.9688 125.464 32.849 125.203 32.6094C124.953 32.3594 124.849 31.9635 124.891 31.4219V29.0156C124.818 27.9427 125.333 27.4271 126.438 27.4688H132.672C133.245 27.4688 133.656 27.5938 133.906 27.8438C134.167 28.0833 134.276 28.474 134.234 29.0156V31.4219C134.318 32.5156 133.797 33.0312 132.672 32.9688H126.438ZM132.219 31.8125C132.521 31.8125 132.719 31.7656 132.812 31.6719C132.917 31.5781 132.969 31.375 132.969 31.0625V29.375C132.969 29.0729 132.922 28.875 132.828 28.7812C132.734 28.6875 132.536 28.6406 132.234 28.6406H126.906C126.594 28.6406 126.385 28.6875 126.281 28.7812C126.188 28.875 126.146 29.0729 126.156 29.375V31.0625C126.156 31.3646 126.203 31.5677 126.297 31.6719C126.391 31.7656 126.594 31.8125 126.906 31.8125H132.219ZM124.484 40.6094C123.964 40.6094 123.583 40.4896 123.344 40.25C123.115 40.0208 123.005 39.651 123.016 39.1406V35.7188C123.016 35.1979 123.13 34.8177 123.359 34.5781C123.599 34.3385 123.974 34.2344 124.484 34.2656H127.438C127.958 34.2656 128.333 34.3802 128.562 34.6094C128.802 34.8385 128.911 35.2083 128.891 35.7188V39.1406C128.891 39.6615 128.776 40.0417 128.547 40.2812C128.318 40.5208 127.948 40.6302 127.438 40.6094H124.484ZM131.672 40.6094C131.151 40.6094 130.771 40.4896 130.531 40.25C130.292 40.0208 130.193 39.651 130.234 39.1406V35.7188C130.234 35.1979 130.349 34.8177 130.578 34.5781C130.807 34.3385 131.177 34.2344 131.688 34.2656H134.641C135.161 34.2656 135.536 34.3802 135.766 34.6094C136.005 34.8385 136.12 35.2083 136.109 35.7188V39.1406C136.109 39.6615 135.99 40.0417 135.75 40.2812C135.521 40.5208 135.151 40.6302 134.641 40.6094H131.672ZM126.969 39.4375C127.25 39.4375 127.438 39.3906 127.531 39.2969C127.625 39.2031 127.672 39.0104 127.672 38.7188V36.1406C127.672 35.8594 127.62 35.6719 127.516 35.5781C127.422 35.474 127.24 35.4219 126.969 35.4219H124.953C124.661 35.4219 124.469 35.4688 124.375 35.5625C124.281 35.6562 124.234 35.849 124.234 36.1406V38.7188C124.234 39.0104 124.281 39.2031 124.375 39.2969C124.469 39.3906 124.661 39.4375 124.953 39.4375H126.969ZM134.172 39.4375C134.464 39.4375 134.656 39.3906 134.75 39.2969C134.844 39.2031 134.891 39.0104 134.891 38.7188V36.1406C134.891 35.849 134.844 35.6562 134.75 35.5625C134.656 35.4688 134.464 35.4219 134.172 35.4219H132.172C131.88 35.4219 131.688 35.4688 131.594 35.5625C131.5 35.6562 131.453 35.849 131.453 36.1406V38.7188C131.453 39.0104 131.5 39.2031 131.594 39.2969C131.688 39.3906 131.88 39.4375 132.172 39.4375H134.172ZM142.75 40.8906C142.375 40.8906 142.188 40.6823 142.188 40.2656V35.625C142.188 35.2812 142.021 35.099 141.688 35.0781H140.328C140.297 36.4844 140.156 37.75 139.906 38.875C139.656 39.9896 139.359 40.5469 139.016 40.5469C138.578 40.5469 138.359 40.3333 138.359 39.9062C138.359 39.8021 138.438 39.5208 138.594 39.0625C139.042 37.7812 139.266 35.3125 139.266 31.6562L139.234 27.8594C139.234 27.4219 139.427 27.2031 139.812 27.2031C140.208 27.2031 140.406 27.4583 140.406 27.9688V30.6406H141.656V27.375C141.656 26.9688 141.844 26.7656 142.219 26.7656C142.594 26.7656 142.781 26.9688 142.781 27.375V30.6406H143.312C143.74 30.6406 143.953 30.8438 143.953 31.25C143.953 31.6354 143.74 31.8281 143.312 31.8281H140.391L140.359 33.875H142.172C142.578 33.875 142.875 33.9688 143.062 34.1562C143.25 34.3333 143.339 34.625 143.328 35.0312V40.2656C143.328 40.6823 143.135 40.8906 142.75 40.8906ZM145.062 36.3281C144.729 36.3281 144.562 36.151 144.562 35.7969C144.562 35.5573 144.797 35.3594 145.266 35.2031C145.693 35.0573 146.12 34.7708 146.547 34.3438H145.672C145.141 34.3438 144.755 34.2292 144.516 34C144.276 33.7604 144.177 33.3854 144.219 32.875V29.7344C144.146 28.6927 144.63 28.2083 145.672 28.2812H146.5L146.766 27.6094C146.984 27.0469 147.266 26.7656 147.609 26.7656C148.057 26.7656 148.281 26.9271 148.281 27.25C148.281 27.3646 148.115 27.6771 147.781 28.1875L147.719 28.2812H150.547C151.599 28.1979 152.083 28.6823 152 29.7344V32.875C152.073 33.9167 151.589 34.4062 150.547 34.3438H147.844C147.521 34.8542 147.062 35.3125 146.469 35.7188C145.875 36.125 145.406 36.3281 145.062 36.3281ZM147.484 29.2969H145.828C145.495 29.2969 145.333 29.4635 145.344 29.7969V30.7812H147.5L147.484 29.2969ZM150.844 29.7969C150.844 29.4635 150.682 29.2969 150.359 29.2969H148.562V30.7812H150.844V29.7969ZM147.172 33.3281C147.297 32.8906 147.391 32.3698 147.453 31.7656H145.344V32.8438C145.344 33.1771 145.505 33.3385 145.828 33.3281H147.172ZM150.359 33.3281C150.693 33.3281 150.854 33.1667 150.844 32.8438V31.7656H148.516C148.474 32.2448 148.391 32.7656 148.266 33.3281H150.359ZM148.906 41.0312C148.49 41.0312 148.281 40.8281 148.281 40.4219V37.7188H144.281C143.792 37.7188 143.547 37.5208 143.547 37.125C143.547 36.7188 143.792 36.5156 144.281 36.5156H148.281V35.3125C148.281 34.8854 148.49 34.6719 148.906 34.6719C149.323 34.6719 149.531 34.8854 149.531 35.3125V36.5156H151.906C152.396 36.5156 152.641 36.7188 152.641 37.125C152.641 37.5208 152.396 37.7188 151.906 37.7188H149.531V40.4219C149.531 40.8281 149.323 41.0312 148.906 41.0312ZM156.875 41.0312C156.469 41.0312 156.266 40.7865 156.266 40.2969V33.0625C155.62 34.3021 155.156 34.9219 154.875 34.9219C154.531 34.9219 154.359 34.7031 154.359 34.2656C154.359 34.0885 154.469 33.8125 154.688 33.4375C155.729 31.7396 156.505 29.9323 157.016 28.0156C157.172 27.4115 157.297 27.0625 157.391 26.9688C157.516 26.8333 157.693 26.7656 157.922 26.7656C158.359 26.7656 158.578 26.9479 158.578 27.3125C158.578 27.4167 158.542 27.5885 158.469 27.8281L157.484 30.4844V40.2969C157.484 40.7865 157.281 41.0312 156.875 41.0312ZM158.781 40.9219C158.365 40.9219 158.156 40.7135 158.156 40.2969C158.156 40.0156 158.547 39.7396 159.328 39.4688C160.161 39.1979 160.818 38.8646 161.297 38.4688C160.047 37.5208 159.422 36.7604 159.422 36.1875C159.422 35.8438 159.609 35.6719 159.984 35.6719C160.203 35.6719 160.417 35.8333 160.625 36.1562C160.979 36.7083 161.453 37.1875 162.047 37.5938C162.318 37.0417 162.495 36.2969 162.578 35.3594H160C159 35.4323 158.531 34.9635 158.594 33.9531V32.3906C158.594 31.8698 158.703 31.4948 158.922 31.2656C159.151 31.0365 159.51 30.9427 160 30.9844H162.672V29.7031H159.047C158.568 29.7031 158.328 29.5052 158.328 29.1094C158.328 28.724 158.568 28.5312 159.047 28.5312H162.672L162.656 27.4531C162.656 26.9948 162.87 26.7656 163.297 26.7656C163.724 26.7656 163.938 27.0469 163.938 27.6094V28.5312H167.859C168.349 28.5312 168.594 28.724 168.594 29.1094C168.594 29.5052 168.349 29.7031 167.859 29.7031H163.922L163.906 30.9844H166.625C167.635 30.901 168.099 31.3698 168.016 32.3906V33.9531C168.099 34.974 167.635 35.4427 166.625 35.3594H163.734C163.63 36.5781 163.391 37.5104 163.016 38.1562C164.359 38.7917 166 39.2396 167.938 39.5C168.406 39.5625 168.641 39.7865 168.641 40.1719C168.641 40.6302 168.411 40.8594 167.953 40.8594C167.38 40.8594 166.516 40.6927 165.359 40.3594C164.151 40.0156 163.13 39.6042 162.297 39.125C161.964 39.4792 161.552 39.7917 161.062 40.0625C160.052 40.6354 159.292 40.9219 158.781 40.9219ZM166.297 34.25C166.672 34.25 166.854 34.0677 166.844 33.7031V32.6562C166.844 32.2812 166.661 32.099 166.297 32.1094H163.891L163.812 34.25H166.297ZM162.672 32.1094H160.312C159.938 32.1094 159.755 32.2917 159.766 32.6562V33.7031C159.766 34.0781 159.948 34.2604 160.312 34.25H162.625L162.672 32.1094ZM180.781 40.8438C180.354 40.8438 180.141 40.6302 180.141 40.2031C180.141 39.776 180.354 39.5625 180.781 39.5625H181.609C181.828 39.5625 181.995 39.5052 182.109 39.3906C182.224 39.2656 182.281 39.099 182.281 38.8906V35.8125H178.125V39.9531C178.125 40.4219 177.922 40.6562 177.516 40.6562C177.099 40.6562 176.891 40.4219 176.891 39.9531V35.8125H172.875C172.708 37.4375 172.474 38.6719 172.172 39.5156C171.87 40.3698 171.51 40.7969 171.094 40.7969C170.656 40.7969 170.438 40.5625 170.438 40.0938C170.438 40 170.505 39.8229 170.641 39.5625C171.047 38.8333 171.339 37.8385 171.516 36.5781C171.693 35.3073 171.781 33.1771 171.781 30.1875L171.75 28.7188C171.74 27.8125 172.271 27.3594 173.344 27.3594H181.953C182.526 27.3177 182.943 27.4271 183.203 27.6875C183.464 27.9479 183.573 28.3646 183.531 28.9375V39.1406C183.604 40.3594 183.047 40.9271 181.859 40.8438H180.781ZM176.891 28.5H173.75C173.5 28.5 173.312 28.599 173.188 28.7969C173.062 28.9844 173.005 29.2604 173.016 29.625V30.9688H176.891V28.5ZM182.281 29.2188C182.281 29 182.219 28.8281 182.094 28.7031C181.969 28.5677 181.797 28.5 181.578 28.5H178.125V30.9688H182.281V29.2188ZM176.891 34.6719V32.1094H173L172.938 34.6719H176.891ZM182.281 34.6719V32.1094H178.125V34.6719H182.281ZM187.031 40.2969C186.583 40.2969 186.359 40.0781 186.359 39.6406C186.359 39.5469 186.396 39.4479 186.469 39.3438C186.542 39.2396 186.656 39.1094 186.812 38.9531C187.583 38.2135 188.146 37.3385 188.5 36.3281C188.573 36.1302 188.63 35.849 188.672 35.4844C188.724 35.1094 188.771 34.6198 188.812 34.0156H187.078C186.599 34.0156 186.359 33.8125 186.359 33.4062C186.359 33.0104 186.599 32.8125 187.078 32.8125H188.859L188.875 31.0312L188.891 30.7969H187.422C186.932 30.7969 186.688 30.5938 186.688 30.1875C186.688 29.7812 186.932 29.5781 187.422 29.5781H188.891L188.875 27.5938C188.875 27.0938 189.083 26.8438 189.5 26.8438C189.906 26.8438 190.109 27.0833 190.109 27.5625L190.094 29.5781H191.359C191.839 29.5781 192.078 29.7812 192.078 30.1875C192.078 30.5938 191.839 30.7969 191.359 30.7969H190.078L190.047 32.6094L190.031 32.8125H191.609C192.099 32.8125 192.344 33.0104 192.344 33.4062C192.344 33.8125 192.099 34.0156 191.609 34.0156H190C189.948 34.6823 189.88 35.2708 189.797 35.7812C189.922 35.6562 190.052 35.5938 190.188 35.5938C190.375 35.5938 190.615 35.7396 190.906 36.0312C191.844 36.9375 192.312 37.5365 192.312 37.8281C192.312 38.2031 192.104 38.3906 191.688 38.3906C191.51 38.3906 191.307 38.2396 191.078 37.9375L190.469 37.2031L190.234 36.9219C190.099 36.7552 189.974 36.6146 189.859 36.5C189.755 36.375 189.698 36.3021 189.688 36.2812C189.406 37.4167 188.984 38.3646 188.422 39.125C187.859 39.9062 187.396 40.2969 187.031 40.2969ZM191.047 40.9062C190.641 40.9062 190.438 40.6979 190.438 40.2812C190.438 39.9792 190.672 39.7552 191.141 39.6094C192.214 39.276 192.974 38.8385 193.422 38.2969C193.87 37.776 194.109 37.0365 194.141 36.0781C193.151 36.0781 192.677 35.5938 192.719 34.625V28.875C192.719 28.3542 192.833 27.9792 193.062 27.75C193.292 27.5104 193.656 27.4062 194.156 27.4375H198.219C198.74 27.4375 199.115 27.5521 199.344 27.7812C199.583 28.0104 199.688 28.3802 199.656 28.8906V34.6094C199.656 35.1406 199.542 35.526 199.312 35.7656C199.083 36.0052 198.719 36.1094 198.219 36.0781H197.688V38.8594C197.688 39.224 197.948 39.4062 198.469 39.4062C198.979 39.4062 199.271 39.3333 199.344 39.1875C199.396 39.0938 199.438 38.8229 199.469 38.375C199.479 38.1354 199.531 37.9583 199.625 37.8438C199.729 37.7292 199.875 37.6719 200.062 37.6719C200.448 37.6719 200.641 37.9062 200.641 38.375C200.641 39.1458 200.536 39.7083 200.328 40.0625C200.099 40.4479 199.495 40.6406 198.516 40.6406C197.62 40.6406 197.068 40.5625 196.859 40.4062C196.63 40.2396 196.505 39.9635 196.484 39.5781V36.0781H195.328C195.245 37.2135 194.964 38.1458 194.484 38.875C193.984 39.6146 193.198 40.1875 192.125 40.5938C191.594 40.8021 191.234 40.9062 191.047 40.9062ZM198.438 29.0156C198.438 28.8594 198.391 28.7396 198.297 28.6562C198.214 28.5729 198.094 28.526 197.938 28.5156H194.406C194.104 28.5156 193.943 28.6771 193.922 29V29.9219H198.438V29.0156ZM198.438 32.3906V30.9531H193.922V32.3906H198.438ZM197.938 35.0156C198.25 35.0156 198.417 34.849 198.438 34.5156V33.4219H193.922V34.5312C193.922 34.6979 193.958 34.8177 194.031 34.8906C194.115 34.9635 194.24 35.0052 194.406 35.0156H197.938ZM203.062 30.5312C202.688 30.5312 202.5 30.3177 202.5 29.8906C202.5 29.724 202.599 29.5625 202.797 29.4062C203.474 28.8542 204.12 28.1406 204.734 27.2656C204.964 26.9323 205.214 26.7656 205.484 26.7656C205.901 26.7656 206.109 26.9219 206.109 27.2344C206.109 27.3698 205.984 27.6146 205.734 27.9688H208.781C209.188 27.9688 209.391 28.1458 209.391 28.5C209.391 28.8542 209.188 29.0312 208.781 29.0312H207.312C207.479 29.4375 207.562 29.7344 207.562 29.9219C207.562 30.2448 207.38 30.4062 207.016 30.4062C206.63 30.4062 206.37 30.1042 206.234 29.5L206.094 29.0312H204.938C204.094 30.0312 203.469 30.5312 203.062 30.5312ZM213.422 30.6562C213.078 30.6562 212.818 30.3594 212.641 29.7656L212.422 29.0312H211.031C210.396 29.9792 209.906 30.4531 209.562 30.4531C209.177 30.4531 208.984 30.2552 208.984 29.8594C208.984 29.724 209.089 29.5521 209.297 29.3438C209.849 28.7917 210.318 28.0729 210.703 27.1875C210.818 26.9062 211.016 26.7656 211.297 26.7656C211.724 26.7656 211.938 26.9219 211.938 27.2344C211.938 27.3698 211.839 27.6146 211.641 27.9688H215.906C216.312 27.9688 216.516 28.1458 216.516 28.5C216.516 28.8542 216.312 29.0312 215.906 29.0312H213.688L213.766 29.2031C213.953 29.6198 214.047 29.9167 214.047 30.0938C214.047 30.4688 213.839 30.6562 213.422 30.6562ZM206.406 41.0625C206.052 41.0625 205.875 40.8802 205.875 40.5156V39.1094H203C202.604 39.1094 202.406 38.9375 202.406 38.5938C202.406 38.2396 202.604 38.0625 203 38.0625H205.875V37.3906H204.25C203.5 37.3906 203.125 37.0052 203.125 36.2344V34.0781C203.125 33.3177 203.5 32.9375 204.25 32.9375H205.875V32.2969H203.094C202.698 32.2969 202.5 32.1198 202.5 31.7656C202.5 31.4219 202.698 31.25 203.094 31.25H205.875V30.8438C205.875 30.5 206.052 30.3281 206.406 30.3281C206.573 30.3281 206.703 30.375 206.797 30.4688C206.891 30.5521 206.938 30.6771 206.938 30.8438V31.25H209.656C210.052 31.25 210.25 31.4271 210.25 31.7812C210.25 32.125 210.052 32.2969 209.656 32.2969H206.938V32.9375H208.656C209.406 32.9375 209.781 33.3177 209.781 34.0781V36.2344C209.781 37.0052 209.406 37.3906 208.656 37.3906H206.938V38.0625H209.75C210.146 38.0625 210.344 38.2396 210.344 38.5938C210.344 38.9375 210.146 39.1094 209.75 39.1094H206.938V40.5156C206.938 40.8802 206.76 41.0625 206.406 41.0625ZM213.172 40.5938C211.547 40.5938 210.734 40.2656 210.734 39.6094V32.4688C210.734 31.6458 211.156 31.2344 212 31.2344H214.672C215.516 31.2344 215.938 31.6458 215.938 32.4688V35.7344C215.938 36.7031 215.135 37.1875 213.531 37.1875C213.052 37.1875 212.812 36.9583 212.812 36.5C212.812 36.2604 212.891 36.0938 213.047 36C213.203 35.9062 213.448 35.875 213.781 35.9062C214.448 35.9688 214.781 35.7135 214.781 35.1406V32.8438C214.781 32.5 214.615 32.3281 214.281 32.3281H212.391C212.234 32.3281 212.109 32.375 212.016 32.4688C211.932 32.5521 211.891 32.6771 211.891 32.8438V38.9688C211.891 39.2083 212.01 39.3542 212.25 39.4062C212.427 39.4375 212.953 39.4531 213.828 39.4531C214.589 39.4531 215.042 39.3802 215.188 39.2344C215.281 39.1406 215.344 38.8594 215.375 38.3906C215.406 37.9219 215.615 37.6875 216 37.6875C216.427 37.6875 216.641 37.9062 216.641 38.3438C216.641 39.2292 216.495 39.8229 216.203 40.125C215.911 40.4375 214.901 40.5938 213.172 40.5938ZM205.875 33.9062H204.594C204.323 33.9062 204.188 34.0521 204.188 34.3438V34.7031H205.875V33.9062ZM208.734 34.3438C208.734 34.2083 208.693 34.1042 208.609 34.0312C208.536 33.9479 208.438 33.9062 208.312 33.9062H206.938V34.7031H208.734V34.3438ZM205.875 35.6406H204.188V35.9688C204.188 36.2604 204.323 36.4062 204.594 36.4062H205.875V35.6406ZM208.312 36.4062C208.448 36.4062 208.552 36.3698 208.625 36.2969C208.698 36.2135 208.734 36.1042 208.734 35.9688V35.6406H206.938V36.4062H208.312Z" fill="black"/>
</svg>
